<mxfile host="app.diagrams.net" modified="2022-04-13T05:12:54.692Z" agent="5.0 (X11; Linux x86_64) AppleWebKit/537.36 (KHTML, like Gecko) Chrome/98.0.4758.80 Safari/537.36" etag="XnNRjJB870s7w0xzOJ2n" version="17.1.3" type="github">
  <diagram id="Rx53lf6qhBVuKlyR0qwF" name="Page-1">
    <mxGraphModel dx="2272" dy="800" grid="1" gridSize="10" guides="1" tooltips="1" connect="1" arrows="1" fold="1" page="1" pageScale="1" pageWidth="850" pageHeight="1100" math="0" shadow="0">
      <root>
        <mxCell id="0" />
        <mxCell id="1" parent="0" />
        <mxCell id="oxs4wpGbw0wFUrqZdwVd-3" value="Server::ActiveTcpListener" style="shape=umlLifeline;perimeter=lifelinePerimeter;whiteSpace=wrap;html=1;container=1;collapsible=0;recursiveResize=0;outlineConnect=0;" vertex="1" parent="1">
          <mxGeometry x="160" y="130" width="210" height="300" as="geometry" />
        </mxCell>
        <mxCell id="oxs4wpGbw0wFUrqZdwVd-17" value="" style="html=1;points=[];perimeter=orthogonalPerimeter;strokeColor=default;fillColor=#858585;" vertex="1" parent="oxs4wpGbw0wFUrqZdwVd-3">
          <mxGeometry x="100" y="82" width="10" height="168" as="geometry" />
        </mxCell>
        <mxCell id="oxs4wpGbw0wFUrqZdwVd-22" value="" style="html=1;points=[];perimeter=orthogonalPerimeter;fillColor=#505050;" vertex="1" parent="oxs4wpGbw0wFUrqZdwVd-3">
          <mxGeometry x="100" y="110" width="10" height="100" as="geometry" />
        </mxCell>
        <mxCell id="oxs4wpGbw0wFUrqZdwVd-23" value="onAcceptWorker" style="edgeStyle=orthogonalEdgeStyle;html=1;align=left;spacingLeft=2;endArrow=block;rounded=0;entryX=1;entryY=0;" edge="1" target="oxs4wpGbw0wFUrqZdwVd-22" parent="oxs4wpGbw0wFUrqZdwVd-3">
          <mxGeometry relative="1" as="geometry">
            <mxPoint x="110" y="92" as="sourcePoint" />
            <Array as="points">
              <mxPoint x="130" y="92" />
            </Array>
          </mxGeometry>
        </mxCell>
        <mxCell id="oxs4wpGbw0wFUrqZdwVd-7" value="Network:TcpListenerImpl" style="shape=umlLifeline;perimeter=lifelinePerimeter;whiteSpace=wrap;html=1;container=1;collapsible=0;recursiveResize=0;outlineConnect=0;" vertex="1" parent="1">
          <mxGeometry x="-30" y="130" width="160" height="300" as="geometry" />
        </mxCell>
        <mxCell id="oxs4wpGbw0wFUrqZdwVd-14" value="onSocketEvent" style="html=1;verticalAlign=bottom;endArrow=block;entryX=0;entryY=0;rounded=0;" edge="1" target="oxs4wpGbw0wFUrqZdwVd-13" parent="oxs4wpGbw0wFUrqZdwVd-7">
          <mxGeometry relative="1" as="geometry">
            <mxPoint x="-130" y="70" as="sourcePoint" />
          </mxGeometry>
        </mxCell>
        <mxCell id="oxs4wpGbw0wFUrqZdwVd-15" value="return" style="html=1;verticalAlign=bottom;endArrow=open;dashed=1;endSize=8;exitX=0;exitY=0.95;rounded=0;" edge="1" source="oxs4wpGbw0wFUrqZdwVd-13" parent="oxs4wpGbw0wFUrqZdwVd-7">
          <mxGeometry relative="1" as="geometry">
            <mxPoint x="-130" y="260" as="targetPoint" />
          </mxGeometry>
        </mxCell>
        <mxCell id="oxs4wpGbw0wFUrqZdwVd-13" value="" style="html=1;points=[];perimeter=orthogonalPerimeter;fillColor=#858585;" vertex="1" parent="oxs4wpGbw0wFUrqZdwVd-7">
          <mxGeometry x="75" y="70" width="10" height="200" as="geometry" />
        </mxCell>
        <mxCell id="oxs4wpGbw0wFUrqZdwVd-18" value="onAccept" style="html=1;verticalAlign=bottom;endArrow=block;entryX=0;entryY=0;rounded=0;" edge="1" target="oxs4wpGbw0wFUrqZdwVd-17" parent="1">
          <mxGeometry relative="1" as="geometry">
            <mxPoint x="49.5" y="212" as="sourcePoint" />
          </mxGeometry>
        </mxCell>
        <mxCell id="oxs4wpGbw0wFUrqZdwVd-19" value="return" style="html=1;verticalAlign=bottom;endArrow=open;dashed=1;endSize=8;exitX=0;exitY=0.95;rounded=0;" edge="1" source="oxs4wpGbw0wFUrqZdwVd-17" parent="1" target="oxs4wpGbw0wFUrqZdwVd-13">
          <mxGeometry relative="1" as="geometry">
            <mxPoint x="49.5" y="288" as="targetPoint" />
          </mxGeometry>
        </mxCell>
        <mxCell id="oxs4wpGbw0wFUrqZdwVd-20" value="Server::ActiveStreamListenerBase" style="shape=umlLifeline;perimeter=lifelinePerimeter;whiteSpace=wrap;html=1;container=1;collapsible=0;recursiveResize=0;outlineConnect=0;" vertex="1" parent="1">
          <mxGeometry x="390" y="130" width="210" height="300" as="geometry" />
        </mxCell>
        <mxCell id="oxs4wpGbw0wFUrqZdwVd-26" value="" style="html=1;points=[];perimeter=orthogonalPerimeter;strokeColor=default;fillColor=#858585;" vertex="1" parent="oxs4wpGbw0wFUrqZdwVd-20">
          <mxGeometry x="100" y="140" width="10" height="66" as="geometry" />
        </mxCell>
        <mxCell id="oxs4wpGbw0wFUrqZdwVd-27" value="onSocketAccepted" style="html=1;verticalAlign=bottom;endArrow=block;entryX=0;entryY=0;rounded=0;" edge="1" target="oxs4wpGbw0wFUrqZdwVd-26" parent="1" source="oxs4wpGbw0wFUrqZdwVd-22">
          <mxGeometry relative="1" as="geometry">
            <mxPoint x="420" y="256" as="sourcePoint" />
          </mxGeometry>
        </mxCell>
        <mxCell id="oxs4wpGbw0wFUrqZdwVd-28" value="return" style="html=1;verticalAlign=bottom;endArrow=open;dashed=1;endSize=8;exitX=0;exitY=0.95;rounded=0;" edge="1" source="oxs4wpGbw0wFUrqZdwVd-26" parent="1" target="oxs4wpGbw0wFUrqZdwVd-22">
          <mxGeometry relative="1" as="geometry">
            <mxPoint x="420" y="332" as="targetPoint" />
          </mxGeometry>
        </mxCell>
      </root>
    </mxGraphModel>
  </diagram>
</mxfile>
